<svg xmlns="http://www.w3.org/2000/svg" version="1.1" xmlns:xlink="http://www.w3.org/1999/xlink" width="512" height="512" x="0" y="0" viewBox="0 0 24 24" style="enable-background:new 0 0 512 512" xml:space="preserve" class=""><g><path d="M11 10v1a1 1 0 0 1-1 1H5a1 1 0 0 1-1-1v-1a1 1 0 0 1 1-1h5a1 1 0 0 1 1 1Zm13-3.5V17a.998.998 0 0 1-1.499.866l-2.17-1.25-1.767 1.209a.996.996 0 0 1-1.389-.261 1 1 0 0 1 .261-1.39l2.285-1.564a.996.996 0 0 1 1.063-.041l1.216.7V6.5C22 4.019 19.981 2 17.5 2a4.462 4.462 0 0 0-4.431 3.815A4.493 4.493 0 0 1 15 9.5v10c0 2.481-2.019 4.5-4.5 4.5h-6A4.505 4.505 0 0 1 0 19.5v-10c0-1.557.795-2.93 2-3.738V5c0-2.757 2.243-5 5-5h10.5C21.084 0 24 2.916 24 6.5Zm-11 3C13 8.121 11.879 7 10.5 7h-6A2.502 2.502 0 0 0 2 9.5v10C2 20.879 3.121 22 4.5 22h6c1.379 0 2.5-1.121 2.5-2.5v-10Zm-1.836-4.433A6.447 6.447 0 0 1 12.799 2H7C5.346 2 4 3.346 4 5v.051c.166-.019.329-.051.5-.051h6c.227 0 .446.034.664.067ZM10 14H9a1 1 0 1 0 0 2h1a1 1 0 1 0 0-2Zm0 4H9a1 1 0 1 0 0 2h1a1 1 0 1 0 0-2Zm-4-4H5a1 1 0 1 0 0 2h1a1 1 0 1 0 0-2Zm0 4H5a1 1 0 1 0 0 2h1a1 1 0 1 0 0-2Z" fill="#ffffff" opacity="1" data-original="#000000" class=""></path></g></svg>