<svg width="16" height="18" viewBox="0 0 16 18" fill="none" xmlns="http://www.w3.org/2000/svg">
<path d="M3.76005 8.05831H8.97814C9.13062 8.05831 9.27686 7.99774 9.38468 7.88992C9.4925 7.7821 9.55307 7.63586 9.55307 7.48338C9.55307 7.3309 9.4925 7.18466 9.38468 7.07684C9.27686 6.96902 9.13062 6.90845 8.97814 6.90845H3.76005C3.60757 6.90845 3.46133 6.96902 3.35351 7.07684C3.24569 7.18466 3.18512 7.3309 3.18512 7.48338C3.18512 7.63586 3.24569 7.7821 3.35351 7.88992C3.46133 7.99774 3.60757 8.05831 3.76005 8.05831Z" fill="#55B56C"/>
<path d="M6.89228 10.2544H3.76005C3.60757 10.2544 3.46133 10.315 3.35351 10.4228C3.24569 10.5306 3.18512 10.6768 3.18512 10.8293C3.18512 10.9818 3.24569 11.128 3.35351 11.2359C3.46133 11.3437 3.60757 11.4043 3.76005 11.4043H6.89228C7.04476 11.4043 7.191 11.3437 7.29882 11.2359C7.40664 11.128 7.46722 10.9818 7.46722 10.8293C7.46722 10.6768 7.40664 10.5306 7.29882 10.4228C7.191 10.315 7.04476 10.2544 6.89228 10.2544Z" fill="#55B56C"/>
<path d="M6.89228 13.603H3.76005C3.60757 13.603 3.46133 13.6636 3.35351 13.7714C3.24569 13.8792 3.18512 14.0255 3.18512 14.178C3.18512 14.3304 3.24569 14.4767 3.35351 14.5845C3.46133 14.6923 3.60757 14.7529 3.76005 14.7529H6.89228C7.04476 14.7529 7.191 14.6923 7.29882 14.5845C7.40664 14.4767 7.46722 14.3304 7.46722 14.178C7.46722 14.0255 7.40664 13.8792 7.29882 13.7714C7.191 13.6636 7.04476 13.603 6.89228 13.603Z" fill="#55B56C"/>
<path d="M15.169 12.5611C15.1673 11.8181 14.9302 11.0948 14.4918 10.4949C14.0535 9.89498 13.4363 9.44935 12.729 9.22193V3.97395C12.7278 3.51688 12.5457 3.07888 12.2225 2.75568C11.8993 2.43248 11.4613 2.25037 11.0042 2.24916H9.58987C9.58206 1.91951 9.44561 1.60601 9.20967 1.37566C8.97374 1.14531 8.65705 1.01641 8.32732 1.0165H8.11114C7.93726 0.706824 7.68373 0.449279 7.37682 0.270554C7.06992 0.0918278 6.7208 -0.0015762 6.36565 2.01235e-05C6.01176 0.00161132 5.66453 0.0963993 5.35891 0.274843C5.0533 0.453286 4.80008 0.709088 4.62475 1.0165H4.39478C4.06505 1.01641 3.74836 1.14531 3.51243 1.37566C3.2765 1.60601 3.14004 1.91951 3.13223 2.24916H1.7248C1.26754 2.24976 0.829184 2.43168 0.505853 2.75501C0.182523 3.07834 0.000608461 3.51669 0 3.97395V16.2752C0 16.7326 0.181719 17.1714 0.505181 17.4948C0.828643 17.8183 1.26735 18 1.7248 18H11.0088C11.4661 17.9994 11.9044 17.8175 12.2277 17.4941C12.5511 17.1708 12.733 16.7325 12.7336 16.2752V15.9026C13.4403 15.674 14.0565 15.2276 14.4939 14.6274C14.9314 14.0271 15.1677 13.3039 15.169 12.5611ZM4.28899 2.27215C4.28899 2.24166 4.30111 2.21241 4.32267 2.19084C4.34424 2.16928 4.37348 2.15717 4.40398 2.15717H4.99961C5.12362 2.15694 5.24427 2.11679 5.34368 2.04264C5.44309 1.9685 5.51597 1.86432 5.55155 1.74551C5.60471 1.5704 5.71277 1.41702 5.85978 1.30802C6.00678 1.19902 6.18494 1.14017 6.36795 1.14017C6.55096 1.14017 6.72912 1.19902 6.87612 1.30802C7.02313 1.41702 7.13119 1.5704 7.18435 1.74551C7.21957 1.8639 7.29212 1.96772 7.39117 2.04149C7.49023 2.11526 7.61048 2.15503 7.73399 2.15487H8.32732C8.35782 2.15487 8.38706 2.16698 8.40863 2.18855C8.43019 2.21011 8.44231 2.23936 8.44231 2.26985V3.64969C8.44231 3.68019 8.43019 3.70943 8.40863 3.731C8.38706 3.75256 8.35782 3.76468 8.32732 3.76468H4.40398C4.37348 3.76468 4.34424 3.75256 4.32267 3.731C4.30111 3.70943 4.28899 3.68019 4.28899 3.64969V2.27215ZM11.0088 16.8501H1.7248C1.6493 16.8501 1.57453 16.8353 1.50478 16.8064C1.43503 16.7775 1.37165 16.7351 1.31826 16.6817C1.26487 16.6284 1.22252 16.565 1.19363 16.4952C1.16474 16.4255 1.14986 16.3507 1.14986 16.2752V3.97395C1.15047 3.82166 1.21124 3.67577 1.31893 3.56808C1.42662 3.46039 1.5725 3.39963 1.7248 3.39902H3.13913V3.65199C3.13974 3.98726 3.27319 4.30863 3.51027 4.5457C3.74734 4.78278 4.06871 4.91623 4.40398 4.91684H8.32732C8.66259 4.91623 8.98396 4.78278 9.22103 4.5457C9.45811 4.30863 9.59156 3.98726 9.59217 3.65199V3.39902H11.0088C11.1603 3.40083 11.305 3.46213 11.4117 3.56969C11.5184 3.67725 11.5785 3.82245 11.5791 3.97395V9.05405C10.6487 9.05405 9.75636 9.42367 9.09844 10.0816C8.44052 10.7395 8.0709 11.6318 8.0709 12.5623C8.0709 13.4927 8.44052 14.3851 9.09844 15.043C9.75636 15.7009 10.6487 16.0705 11.5791 16.0705V16.2775C11.5779 16.4286 11.5175 16.5732 11.4109 16.6803C11.3043 16.7874 11.1599 16.8483 11.0088 16.8501ZM11.6573 14.9207C11.1901 14.9207 10.7334 14.7821 10.3449 14.5225C9.95648 14.2628 9.65376 13.8938 9.47507 13.4621C9.29638 13.0304 9.24974 12.5554 9.34106 12.0972C9.43237 11.639 9.65754 11.2182 9.98808 10.888C10.3186 10.5578 10.7397 10.333 11.198 10.2421C11.6563 10.1512 12.1312 10.1983 12.5628 10.3775C12.9943 10.5566 13.363 10.8597 13.6222 11.2484C13.8815 11.6371 14.0196 12.0939 14.0191 12.5611C14.0179 13.1869 13.7686 13.7867 13.3259 14.229C12.8832 14.6713 12.2831 14.9201 11.6573 14.9207Z" fill="#55B56C"/>
<path d="M12.2323 11.471L11.3308 12.5082L10.995 12.2575C10.873 12.166 10.7197 12.1268 10.5688 12.1483C10.4178 12.1699 10.2816 12.2505 10.1901 12.3725C10.0986 12.4945 10.0594 12.6478 10.0809 12.7988C10.1025 12.9497 10.1831 13.0859 10.3051 13.1774L11.0709 13.7501C11.1701 13.8253 11.2914 13.8657 11.4159 13.865C11.4983 13.8651 11.5797 13.8475 11.6547 13.8134C11.7297 13.7793 11.7965 13.7294 11.8505 13.6673L13.1016 12.2253C13.1511 12.1683 13.1889 12.102 13.2128 12.0303C13.2367 11.9586 13.2463 11.8829 13.241 11.8075C13.2356 11.7321 13.2155 11.6585 13.1817 11.5909C13.1479 11.5233 13.1012 11.4631 13.0441 11.4135C12.987 11.364 12.9207 11.3262 12.849 11.3023C12.7774 11.2784 12.7017 11.2688 12.6263 11.2741C12.5509 11.2795 12.4773 11.2996 12.4097 11.3334C12.3421 11.3672 12.2818 11.4139 12.2323 11.471Z" fill="#55B56C"/>
</svg>

