<svg width="18" height="18" viewBox="0 0 18 18" fill="none" xmlns="http://www.w3.org/2000/svg">
<path d="M12.375 0.5C12.7206 0.5 13 0.779392 13 1.125V2H13.875C15.8736 2 17.5 3.62639 17.5 5.625V13.875C17.5 15.8736 15.8736 17.5 13.875 17.5H4.125C2.12639 17.5 0.5 15.8736 0.5 13.875V5.625C0.5 3.62639 2.12639 2 4.125 2H5V1.125C5 0.779392 5.27939 0.5 5.625 0.5C5.97061 0.5 6.25 0.779392 6.25 1.125V2H11.75V1.125C11.75 0.779392 12.0294 0.5 12.375 0.5ZM1.75 13.875C1.75 15.1846 2.81536 16.25 4.125 16.25H13.875C15.1846 16.25 16.25 15.1846 16.25 13.875V6.25H1.75V13.875Z" fill="white" stroke="white"/>
</svg>
