<svg width="56" height="56" viewBox="0 0 56 56" fill="none" xmlns="http://www.w3.org/2000/svg">
<g clip-path="url(#clip0_4091_959)">
<path d="M28 56C43.464 56 56 43.464 56 28C56 12.536 43.464 0 28 0C12.536 0 0 12.536 0 28C0 43.464 12.536 56 28 56Z" fill="#6DC180"/>
<path d="M28 0V56C43.464 56 56 43.464 56 28C56 12.536 43.464 0 28 0Z" fill="#5CA15D"/>
<path d="M24 40.2425L11.8788 28.1211L16.1212 23.8787L24 31.7573L38.8788 16.8787L43.1212 21.1211L24 40.2425Z" fill="#F2F2F4"/>
<path d="M28 36.2425L43.1212 21.1211L38.8788 16.8787L28 27.7573V36.2425Z" fill="#DFDFE1"/>
</g>
<defs>
<clipPath id="clip0_4091_959">
<rect width="56" height="56" fill="white"/>
</clipPath>
</defs>
</svg>
