<svg width="18" height="18" viewBox="0 0 18 18" fill="none" xmlns="http://www.w3.org/2000/svg">
<g clip-path="url(#clip0_4085_1298)">
<path d="M11.25 1.85625C11.25 0.831 12.0052 0 12.9375 0C13.8698 0 14.625 0.831 14.625 1.85625C14.625 0.831 15.3802 0 16.3125 0C17.2448 0 18 0.831 18 1.85625C18 3.3165 16.0965 5.0265 15.1485 5.787C14.8433 6.03225 14.4067 6.03225 14.1015 5.787C13.1535 5.02575 11.25 3.31575 11.25 1.85625ZM16.875 6.75C16.254 6.75 15.75 7.254 15.75 7.875V13.875C15.75 14.9093 14.9093 15.75 13.875 15.75H4.125C3.0915 15.75 2.25 14.9093 2.25 13.875V8.45775L6.08325 12.291C6.8625 13.0703 7.89825 13.4993 9 13.4993C10.0883 13.4993 11.112 13.0808 11.8875 12.3202L13.8645 10.5975C14.3333 10.1895 14.3813 9.47925 13.974 9.0105C13.5645 8.541 12.855 8.49225 12.387 8.901C12.387 8.901 10.344 10.6815 10.326 10.7003C9.62025 11.4075 8.385 11.4082 7.67475 10.7003L2.47575 5.502C2.79075 4.90875 3.408 4.5 4.125 4.5H8.625C9.24675 4.5 9.75 3.996 9.75 3.375C9.75 2.754 9.24675 2.25 8.625 2.25H4.125C1.85025 2.25 0 4.101 0 6.375V13.875C0 16.149 1.85025 18 4.125 18H13.875C16.149 18 18 16.149 18 13.875V7.875C18 7.254 17.496 6.75 16.875 6.75Z" fill="#55B56C"/>
</g>
<defs>
<clipPath id="clip0_4085_1298">
<rect width="18" height="18" fill="white"/>
</clipPath>
</defs>
</svg>
