<svg width="18" height="18" viewBox="0 0 18 18" fill="none" xmlns="http://www.w3.org/2000/svg">
<g clip-path="url(#clip0_3276_415)">
<path d="M8.295 16.4625C4.4925 16.1025 1.5 12.8925 1.5 9C1.5 4.8675 4.8675 1.5 9 1.5C12.825 1.5 15.9825 4.38 16.44 8.085C16.935 8.5275 17.4825 9.0375 17.97 9.63C17.985 9.42 18 9.21 18 9C18 4.035 13.965 0 9 0C4.035 0 0 4.035 0 9C0 13.965 4.035 18 9 18C9.18 18 9.3525 17.985 9.525 17.97C9.0375 17.535 8.625 17.0325 8.295 16.4625Z" fill="white"/>
<path d="M5.25 5.25H3.75V8.25H5.25V5.25Z" fill="white"/>
<path d="M8.25 5.25H6.75V8.25H8.25V5.25Z" fill="white"/>
<path d="M11.28 5.25H9.78003V8.25H11.28V5.25Z" fill="white"/>
<path d="M13.2075 17.5725C10.905 17.5725 9.03748 15.6975 9.03748 13.395C9.03748 11.0925 10.9125 9.21753 13.2075 9.21753C15.5025 9.21753 17.385 11.0925 17.385 13.395C17.385 15.6975 15.51 17.5725 13.2075 17.5725ZM13.2075 10.725C11.73 10.725 10.5375 11.925 10.5375 13.4025C10.5375 14.88 11.7375 16.08 13.2075 16.08C14.6775 16.08 15.885 14.88 15.885 13.4025C15.885 11.925 14.685 10.725 13.2075 10.725Z" fill="white"/>
<path d="M15.1275 12.9226H13.6875V11.4751H12.7275V12.9226H11.28V13.8826H12.7275V15.3226H13.6875V13.8826H15.1275V12.9226Z" fill="white"/>
</g>
<defs>
<clipPath id="clip0_3276_415">
<rect width="18" height="18" fill="white"/>
</clipPath>
</defs>
</svg>
