<svg xmlns="http://www.w3.org/2000/svg" version="1.1" xmlns:xlink="http://www.w3.org/1999/xlink" width="512" height="512" x="0" y="0" viewBox="0 0 24 24" style="enable-background:new 0 0 512 512" xml:space="preserve" class=""><g><path d="M18 6a1 1 0 0 0-1.414 0L12 10.586 7.414 6A1 1 0 0 0 6 6a1 1 0 0 0 0 1.414L10.586 12 6 16.586A1 1 0 0 0 6 18a1 1 0 0 0 1.414 0L12 13.414 16.586 18A1 1 0 0 0 18 18a1 1 0 0 0 0-1.414L13.414 12 18 7.414A1 1 0 0 0 18 6Z" fill="#ffffff" opacity="1" data-original="#000000" class=""></path></g></svg>