<svg width="15" height="15" viewBox="0 0 15 15" fill="none" xmlns="http://www.w3.org/2000/svg">
<path fill-rule="evenodd" clip-rule="evenodd" d="M7.08231 13.0572C10.4084 13.0572 13.1087 10.3568 13.1087 7.03078C13.1087 3.70472 10.4084 1.0044 7.08231 1.0044C6.8051 1.0044 6.58011 0.779413 6.58011 0.502199C6.58011 0.224985 6.8051 0 7.08231 0C10.9628 0 14.1131 3.15029 14.1131 7.03078C14.1131 10.9113 10.9628 14.0616 7.08231 14.0616C6.8051 14.0616 6.58011 13.8366 6.58011 13.5594C6.58011 13.2822 6.8051 13.0572 7.08231 13.0572ZM2.53038 11.0343C2.94771 11.4948 3.43183 11.8891 3.96416 12.2039C4.20271 12.3451 4.28205 12.6534 4.14093 12.8919C3.99982 13.1305 3.69147 13.2098 3.45292 13.0687C2.83371 12.7026 2.27075 12.2441 1.78562 11.7083C1.59981 11.5029 1.61538 11.185 1.82078 10.9987C2.02668 10.8128 2.34407 10.8284 2.53038 11.0343ZM1.00018 7.71327C1.01525 7.82828 1.03333 7.94378 1.05543 8.05929C1.15034 8.565 1.30552 9.0446 1.51142 9.49156C1.62693 9.74316 1.51695 10.042 1.26484 10.158C1.01324 10.2735 0.714934 10.1635 0.598927 9.9114C0.359378 9.39112 0.179089 8.83368 0.0681028 8.2456C0.0429926 8.11101 0.0213976 7.97693 0.00432301 7.84334C-0.0318356 7.56864 0.162013 7.31603 0.437219 7.28038C0.711921 7.24422 0.964025 7.43857 1.00018 7.71327ZM7.58451 8.05929L9.51045 6.13336C9.7063 5.9375 10.0247 5.9375 10.2206 6.13336C10.4164 6.32921 10.4164 6.64761 10.2206 6.84346L7.43737 9.62665C7.24151 9.82301 6.92312 9.82301 6.72726 9.62665L3.94407 6.84346C3.74822 6.64761 3.74822 6.32921 3.94407 6.13336C4.13993 5.9375 4.45833 5.9375 4.65418 6.13336L6.58011 8.05929V4.52029C6.58011 4.24358 6.8051 4.01809 7.08231 4.01809C7.35953 4.01809 7.58451 4.24358 7.58451 4.52029V8.05929ZM1.63295 4.11251C1.35022 4.6589 1.14883 5.24898 1.04036 5.86468C0.992148 6.13788 0.731507 6.32017 0.458814 6.27246C0.185617 6.22425 0.0028162 5.96361 0.0510273 5.69042C0.177079 4.97378 0.412108 4.28677 0.740546 3.65149C0.868105 3.40491 1.17093 3.30849 1.41751 3.43604C1.66359 3.5631 1.76001 3.86643 1.63295 4.11251ZM4.2012 1.50861C3.64828 1.80289 3.1501 2.17753 2.71921 2.61445C2.52486 2.81181 2.20647 2.81432 2.0091 2.61997C1.81174 2.42512 1.80973 2.10723 2.00408 1.90936C2.50527 1.40063 3.08531 0.964724 3.72963 0.621722C3.97421 0.491653 4.27854 0.58456 4.40861 0.82913C4.53868 1.0737 4.44577 1.37803 4.2012 1.50861Z" fill="#151516"/>
</svg>
