<svg width="17" height="19" viewBox="0 0 17 19" fill="none" xmlns="http://www.w3.org/2000/svg">
<path d="M5.01562 2.00871C4.74958 2.00871 4.49443 2.11439 4.30631 2.30252C4.11819 2.49064 4.0125 2.74579 4.0125 3.01183C4.0125 3.27788 4.11819 3.53303 4.30631 3.72115C4.49443 3.90927 4.74958 4.01496 5.01562 4.01496C5.28167 4.01496 5.53682 3.90927 5.72494 3.72115C5.91306 3.53303 6.01875 3.27788 6.01875 3.01183C6.01875 2.74579 5.91306 2.49064 5.72494 2.30252C5.53682 2.11439 5.28167 2.00871 5.01562 2.00871ZM2.17678 2.00871C2.38403 1.42135 2.76836 0.912727 3.27681 0.552963C3.78525 0.193198 4.39277 0 5.01562 0C5.63848 0 6.246 0.193198 6.75444 0.552963C7.26289 0.912727 7.64722 1.42135 7.85447 2.00871H15.0469C15.3129 2.00871 15.5681 2.11439 15.7562 2.30252C15.9443 2.49064 16.05 2.74579 16.05 3.01183C16.05 3.27788 15.9443 3.53303 15.7562 3.72115C15.5681 3.90927 15.3129 4.01496 15.0469 4.01496H7.85447C7.64722 4.60232 7.26289 5.11094 6.75444 5.4707C6.246 5.83047 5.63848 6.02367 5.01562 6.02367C4.39277 6.02367 3.78525 5.83047 3.27681 5.4707C2.76836 5.11094 2.38403 4.60232 2.17678 4.01496H1.00312C0.73708 4.01496 0.481931 3.90927 0.293809 3.72115C0.105686 3.53303 0 3.27788 0 3.01183C0 2.74579 0.105686 2.49064 0.293809 2.30252C0.481931 2.11439 0.73708 2.00871 1.00312 2.00871H2.17678ZM11.0344 8.02746C10.7683 8.02746 10.5132 8.13314 10.3251 8.32127C10.1369 8.50939 10.0312 8.76454 10.0312 9.03058C10.0312 9.29663 10.1369 9.55178 10.3251 9.7399C10.5132 9.92802 10.7683 10.0337 11.0344 10.0337C11.3004 10.0337 11.5556 9.92802 11.7437 9.7399C11.9318 9.55178 12.0375 9.29663 12.0375 9.03058C12.0375 8.76454 11.9318 8.50939 11.7437 8.32127C11.5556 8.13314 11.3004 8.02746 11.0344 8.02746ZM8.19553 8.02746C8.40278 7.4401 8.78711 6.93148 9.29556 6.57171C9.804 6.21195 10.4115 6.01875 11.0344 6.01875C11.6572 6.01875 12.2647 6.21195 12.7732 6.57171C13.2816 6.93148 13.666 7.4401 13.8732 8.02746H15.0469C15.3129 8.02746 15.5681 8.13314 15.7562 8.32127C15.9443 8.50939 16.05 8.76454 16.05 9.03058C16.05 9.29663 15.9443 9.55178 15.7562 9.7399C15.5681 9.92802 15.3129 10.0337 15.0469 10.0337H13.8732C13.666 10.6211 13.2816 11.1297 12.7732 11.4895C12.2647 11.8492 11.6572 12.0424 11.0344 12.0424C10.4115 12.0424 9.804 11.8492 9.29556 11.4895C8.78711 11.1297 8.40278 10.6211 8.19553 10.0337H1.00312C0.73708 10.0337 0.481931 9.92802 0.293809 9.7399C0.105686 9.55178 0 9.29663 0 9.03058C0 8.76454 0.105686 8.50939 0.293809 8.32127C0.481931 8.13314 0.73708 8.02746 1.00312 8.02746H8.19553ZM5.01562 14.0462C4.74958 14.0462 4.49443 14.1519 4.30631 14.34C4.11819 14.5281 4.0125 14.7833 4.0125 15.0493C4.0125 15.3154 4.11819 15.5705 4.30631 15.7586C4.49443 15.9468 4.74958 16.0525 5.01562 16.0525C5.28167 16.0525 5.53682 15.9468 5.72494 15.7586C5.91306 15.5705 6.01875 15.3154 6.01875 15.0493C6.01875 14.7833 5.91306 14.5281 5.72494 14.34C5.53682 14.1519 5.28167 14.0462 5.01562 14.0462ZM2.17678 14.0462C2.38403 13.4588 2.76836 12.9502 3.27681 12.5905C3.78525 12.2307 4.39277 12.0375 5.01562 12.0375C5.63848 12.0375 6.246 12.2307 6.75444 12.5905C7.26289 12.9502 7.64722 13.4588 7.85447 14.0462H15.0469C15.3129 14.0462 15.5681 14.1519 15.7562 14.34C15.9443 14.5281 16.05 14.7833 16.05 15.0493C16.05 15.3154 15.9443 15.5705 15.7562 15.7586C15.5681 15.9468 15.3129 16.0525 15.0469 16.0525H7.85447C7.64722 16.6398 7.26289 17.1484 6.75444 17.5082C6.246 17.868 5.63848 18.0612 5.01562 18.0612C4.39277 18.0612 3.78525 17.868 3.27681 17.5082C2.76836 17.1484 2.38403 16.6398 2.17678 16.0525H1.00312C0.73708 16.0525 0.481931 15.9468 0.293809 15.7586C0.105686 15.5705 0 15.3154 0 15.0493C0 14.7833 0.105686 14.5281 0.293809 14.34C0.481931 14.1519 0.73708 14.0462 1.00312 14.0462H2.17678Z" fill="#6E6E6E"/>
</svg>
