<svg width="12" height="14" viewBox="0 0 12 14" fill="none" xmlns="http://www.w3.org/2000/svg">
<path d="M5.86223 14L6.26888 13.6514C6.82949 13.182 11.7245 8.95454 11.7245 5.86223C11.7245 2.62462 9.09985 0 5.86223 0C2.62462 0 0 2.62462 0 5.86223C0 8.95457 4.89498 13.1821 5.45326 13.6538L5.86223 14ZM5.86223 1.26759C8.39858 1.27046 10.454 3.32586 10.4569 5.86221C10.4569 7.80486 7.44527 10.9082 5.86223 12.3286C4.27917 10.9076 1.26761 7.80251 1.26761 5.86221C1.27048 3.32586 3.32586 1.27048 5.86223 1.26759Z" fill="#55B56C"/>
<path d="M5.86225 8.18581C7.14561 8.18581 8.18599 7.14543 8.18599 5.86207C8.18599 4.57871 7.14561 3.53833 5.86225 3.53833C4.57888 3.53833 3.53851 4.57871 3.53851 5.86207C3.53851 7.14543 4.57886 8.18581 5.86225 8.18581ZM5.86225 4.70017C6.50393 4.70017 7.02412 5.22036 7.02412 5.86204C7.02412 6.50372 6.50393 7.02391 5.86225 7.02391C5.22056 7.02391 4.70038 6.50372 4.70038 5.86204C4.70038 5.22036 5.22054 4.70017 5.86225 4.70017Z" fill="#55B56C"/>
</svg>
