<svg width="14" height="14" viewBox="0 0 14 14" fill="none" xmlns="http://www.w3.org/2000/svg">
<path d="M7.58333 6.41667V4.08333H8.75V5.44775L7.81142 6.41667H7.58333ZM6.45225 12.8053C3.49183 12.5282 1.16667 10.031 1.16667 7C1.16667 3.7835 3.7835 1.16667 7 1.16667C9.97558 1.16667 12.4337 3.40842 12.7855 6.29067C13.1717 6.63367 13.5934 7.03092 13.9749 7.49233C13.9866 7.329 14 7.16625 14 7C14 3.14008 10.8599 0 7 0C3.14008 0 0 3.14008 0 7C0 10.8599 3.14008 14 7 14C7.13825 14 7.273 13.9872 7.40892 13.979C7.03033 13.643 6.706 13.2475 6.45225 12.8053ZM4.08333 6.41667V4.08333H2.91667V6.41667H4.08333ZM6.41667 6.41667V4.08333H5.25V6.41667H6.41667ZM14 10.4924C14 12.4227 12.4302 13.9924 10.5 13.9924C8.56975 13.9924 7 12.4227 7 10.4924C7 9.46633 7.57108 8.34108 8.13458 7.75892L8.93317 6.93467L9.128 8.06692C9.16417 8.27633 9.23592 8.51783 9.30242 8.67242C9.36717 8.54292 9.43658 8.25592 9.48208 8.071C9.59992 7.58158 9.7475 6.972 10.1494 6.3805L10.5455 5.79658L11.0442 6.29533C11.2292 6.47967 11.4537 6.67508 11.6935 6.88392C12.6671 7.7315 14 8.89175 14 10.4924ZM12.8333 10.4924C12.8333 9.42375 11.8207 8.54175 10.927 7.76358C10.8868 7.728 10.8459 7.69358 10.8068 7.65858C10.7263 7.88725 10.6709 8.11825 10.6155 8.34575C10.4562 9.0055 10.2381 9.90908 9.17875 9.90908C8.83925 9.90908 8.59017 9.72417 8.40875 9.464C8.26408 9.80058 8.16667 10.1669 8.16667 10.4924C8.16667 11.3849 8.67008 12.1619 9.408 12.5539C9.25167 12.138 9.34033 11.6515 9.67458 11.3172L10.5 10.4918L11.3248 11.3172C11.6591 11.6515 11.7477 12.1386 11.5914 12.5539C12.3293 12.1619 12.8333 11.3855 12.8333 10.4924Z" fill="#55B56C"/>
</svg>
