<svg width="14" height="14" viewBox="0 0 14 14" fill="none" xmlns="http://www.w3.org/2000/svg">
<path fill-rule="evenodd" clip-rule="evenodd" d="M3.88831 4.66494C3.68206 4.66494 3.48426 4.58301 3.33842 4.43717C3.19258 4.29133 3.11065 4.09352 3.11065 3.88728V3.11272C2.69815 3.11272 2.30255 3.27659 2.01087 3.56827C1.71919 3.85995 1.55533 4.25555 1.55533 4.66805V5.70493H11.9242V4.66805C11.9242 4.25555 11.7603 3.85995 11.4686 3.56827C11.1769 3.27659 10.7813 3.11272 10.3688 3.11272V3.89039C10.3688 4.09664 10.2869 4.29444 10.1411 4.44028C9.99522 4.58612 9.79742 4.66805 9.59117 4.66805C9.38492 4.66805 9.18712 4.58612 9.04128 4.44028C8.89544 4.29444 8.81351 4.09664 8.81351 3.89039V3.11272H4.66598V3.88728C4.66598 4.09352 4.58404 4.29133 4.4382 4.43717C4.29236 4.58301 4.09456 4.66494 3.88831 4.66494ZM8.81351 1.5574H4.66598V0.777663C4.66598 0.571414 4.58404 0.373612 4.4382 0.227772C4.29236 0.0819321 4.09456 0 3.88831 0C3.68206 0 3.48426 0.0819321 3.33842 0.227772C3.19258 0.373612 3.11065 0.571414 3.11065 0.777663V1.5574C2.28565 1.5574 1.49445 1.88513 0.911089 2.46849C0.327728 3.05185 0 3.84305 0 4.66805V10.8893C0 11.7143 0.327728 12.5056 0.911089 13.0889C1.49445 13.6723 2.28565 14 3.11065 14H10.3688C11.1938 14 11.985 13.6723 12.5684 13.0889C13.1518 12.5056 13.4795 11.7143 13.4795 10.8893V4.66805C13.4795 3.84305 13.1518 3.05185 12.5684 2.46849C11.985 1.88513 11.1938 1.5574 10.3688 1.5574V0.779736C10.3688 0.573487 10.2869 0.375686 10.1411 0.229846C9.99522 0.0840058 9.79742 0.00207374 9.59117 0.00207374C9.38492 0.00207374 9.18712 0.0840058 9.04128 0.229846C8.89544 0.375686 8.81351 0.573487 8.81351 0.779736V1.5574ZM1.55533 7.26026V10.8893C1.55533 11.3018 1.71919 11.6975 2.01087 11.9891C2.30255 12.2808 2.69815 12.4447 3.11065 12.4447H10.3688C10.7813 12.4447 11.1769 12.2808 11.4686 11.9891C11.7603 11.6975 11.9242 11.3018 11.9242 10.8893V7.26026H1.55533Z" fill="#55B56C"/>
</svg>
