<svg xmlns="http://www.w3.org/2000/svg" version="1.1" xmlns:xlink="http://www.w3.org/1999/xlink" width="512" height="512" x="0" y="0" viewBox="0 0 24 24" style="enable-background:new 0 0 512 512" xml:space="preserve" class=""><g><path d="M16.063 21.801a1.5 1.5 0 0 1-1.081 1.825c-.969.248-1.972.374-2.983.374C5.383 24 0 18.617 0 12S5.383 0 12 0a12.06 12.06 0 0 1 10.844 6.856 1.5 1.5 0 1 1-2.71 1.287A9.047 9.047 0 0 0 12 2.999C7.038 3 3 7.037 3 12s4.038 9 9 9c.76 0 1.513-.095 2.238-.28a1.498 1.498 0 0 1 1.826 1.081ZM6 8.5v2a1.5 1.5 0 1 0 3 0v-2a1.5 1.5 0 1 0-3 0Zm4.5 0v2a1.5 1.5 0 1 0 3 0v-2a1.5 1.5 0 1 0-3 0Zm4.5 0v2a1.5 1.5 0 1 0 3 0v-2a1.5 1.5 0 1 0-3 0Zm8.702 8.388a1.892 1.892 0 0 0-1.604-.88H19.68l1.435-2.869c.37-.741.07-1.642-.671-2.013a1.505 1.505 0 0 0-2.013.671l-2.23 4.46a1.892 1.892 0 0 0 .083 1.85 1.89 1.89 0 0 0 1.617.901h2.472l-1.318 2.826a1.5 1.5 0 1 0 2.719 1.268l2.047-4.389a1.895 1.895 0 0 0-.119-1.825Z" fill="#55b56c" opacity="1" data-original="#000000" class=""></path></g></svg>