<svg width="30" height="30" viewBox="0 0 30 30" fill="none" xmlns="http://www.w3.org/2000/svg">
<path d="M16.25 13.75V8.75H18.75V11.6737L16.7388 13.75H16.25ZM13.8263 27.44C7.4825 26.8463 2.5 21.495 2.5 15C2.5 8.1075 8.1075 2.5 15 2.5C21.3762 2.5 26.6437 7.30375 27.3975 13.48C28.225 14.215 29.1288 15.0662 29.9463 16.055C29.9713 15.705 30 15.3562 30 15C30 6.72875 23.2712 0 15 0C6.72875 0 0 6.72875 0 15C0 23.2712 6.72875 30 15 30C15.2963 30 15.585 29.9725 15.8763 29.955C15.065 29.235 14.37 28.3875 13.8263 27.44ZM8.75 13.75V8.75H6.25V13.75H8.75ZM13.75 13.75V8.75H11.25V13.75H13.75ZM30 22.4837C30 26.62 26.6362 29.9837 22.5 29.9837C18.3638 29.9837 15 26.62 15 22.4837C15 20.285 16.2237 17.8737 17.4312 16.6262L19.1425 14.86L19.56 17.2863C19.6375 17.735 19.7913 18.2525 19.9338 18.5837C20.0725 18.3062 20.2212 17.6912 20.3187 17.295C20.5712 16.2463 20.8875 14.94 21.7488 13.6725L22.5975 12.4213L23.6663 13.49C24.0625 13.885 24.5437 14.3037 25.0575 14.7512C27.1437 16.5675 30 19.0537 30 22.4837ZM27.5 22.4837C27.5 20.1937 25.33 18.3037 23.415 16.6362C23.3288 16.56 23.2412 16.4862 23.1575 16.4112C22.985 16.9012 22.8662 17.3962 22.7475 17.8838C22.4062 19.2975 21.9387 21.2337 19.6687 21.2337C18.9412 21.2337 18.4075 20.8375 18.0187 20.28C17.7087 21.0013 17.5 21.7862 17.5 22.4837C17.5 24.3962 18.5788 26.0613 20.16 26.9012C19.825 26.01 20.015 24.9675 20.7312 24.2512L22.5 22.4825L24.2675 24.2512C24.9837 24.9675 25.1737 26.0112 24.8388 26.9012C26.42 26.0613 27.5 24.3975 27.5 22.4837Z" fill="white"/>
</svg>
