<svg width="18" height="18" viewBox="0 0 18 18" fill="none" xmlns="http://www.w3.org/2000/svg">
<path d="M7.875 4.1295C7.875 3.5085 8.379 3.0045 9 3.0045C9.621 3.0045 10.125 3.5085 10.125 4.1295C10.125 4.7505 9.621 5.2545 9 5.2545C8.379 5.2545 7.875 4.7505 7.875 4.1295ZM6.11175 7.0695C5.307 6.26625 4.875 5.2275 4.875 4.125C4.875 3.0225 5.304 1.98675 6.084 1.20825C6.8625 0.429 7.89825 0 9 0C10.1018 0 11.1375 0.429 11.916 1.20825C12.696 1.98675 13.125 3.0225 13.125 4.125C13.125 5.2275 12.696 6.26325 11.916 7.04175L9 9.7485L6.11175 7.0695ZM6.375 4.125C6.375 4.827 6.651 5.48775 7.152 5.98875L9 7.70175L10.8758 5.961C11.3513 5.48475 11.625 4.82625 11.625 4.125C11.625 3.42375 11.352 2.76525 10.8563 2.26875C10.3605 1.773 9.702 1.5 9.00075 1.5C8.2995 1.5 7.641 1.773 7.14525 2.26875C6.64875 2.7645 6.37575 3.423 6.37575 4.125H6.375ZM18 16.875V18H0L0.00975 16.7557L1.6815 6.39225C1.83075 5.46825 2.52 4.764 3.39675 4.56375C3.4365 5.06925 3.54525 5.5605 3.7185 6.033C3.435 6.105 3.21075 6.32925 3.162 6.63075L2.961 7.87875L7.78875 12.1702L15.189 8.8065L14.838 6.63075C14.79 6.33075 14.568 6.108 14.2875 6.03375C14.457 5.5635 14.565 5.07075 14.604 4.563C15.4808 4.76325 16.17 5.4675 16.3193 6.3915L18 16.875ZM1.5705 16.5H10.4025L2.6775 9.63375L1.56975 16.5H1.5705ZM16.4295 16.5L15.4357 10.341L9.01425 13.26L12.6593 16.5H16.4295Z" fill="white"/>
</svg>
