<svg width="55" height="48" viewBox="0 0 55 48" fill="none" xmlns="http://www.w3.org/2000/svg">
<path d="M13.4009 17.1819H32.9579V20.3507H13.4009V17.1819Z" fill="#CDCDCD"/>
<path d="M13.4009 24.8586H32.9579V28.0271H13.4009V24.8586Z" fill="#CDCDCD"/>
<path d="M54.1601 10.2211C54.1601 4.5853 49.5752 0 43.9393 0C39.8003 0 36.2275 2.47297 34.6223 6.01897H6.31549C2.83329 6.01897 0 8.85259 0 12.3345V32.6131C0 36.0956 2.83329 38.9292 6.31549 38.9292H8.02452V48L21.5731 38.9292H39.2125C42.6954 38.9292 45.5287 36.0956 45.5287 32.6131V20.3183C50.4118 19.5524 54.1601 15.3162 54.1601 10.2211ZM39.2125 35.7601H20.6105L11.193 42.065V35.7601H6.31549C4.58034 35.7601 3.16849 34.3486 3.16849 32.6131V12.3345C3.16849 10.5996 4.58034 9.18811 6.31549 9.18811H33.7704C33.736 9.52761 33.7182 9.87239 33.7182 10.2211C33.7182 15.3195 37.4711 19.5583 42.3595 20.32V32.6131C42.3595 34.3486 40.9477 35.7601 39.2125 35.7601ZM43.9393 17.2731C40.0509 17.2731 36.8873 14.1096 36.8873 10.2211C36.8873 6.33234 40.0509 3.16849 43.9393 3.16849C47.8278 3.16849 50.9916 6.33234 50.9916 10.2211C50.9916 14.1096 47.8278 17.2731 43.9393 17.2731Z" fill="#CDCDCD"/>
<path d="M42.355 6.47116H45.5238V13.9704H42.355V6.47116Z" fill="#CDCDCD"/>
</svg>
