<svg width="16" height="16" viewBox="0 0 16 16" fill="none" xmlns="http://www.w3.org/2000/svg">
<path d="M14.8707 5.218L10.5073 1.038C9.84479 0.375644 8.94706 0.00239293 8.01022 -0.000230221C7.07338 -0.00285337 6.17357 0.365364 5.50733 1.024L1.12933 5.218C0.77293 5.56107 0.489258 5.97239 0.295233 6.42745C0.101207 6.8825 0.000800728 7.37197 0 7.86666L0 12.3333C0.00105878 13.3055 0.387707 14.2375 1.07511 14.9249C1.76252 15.6123 2.69453 15.9989 3.66667 16H12.3333C13.3055 15.9989 14.2375 15.6123 14.9249 14.9249C15.6123 14.2375 15.9989 13.3055 16 12.3333V7.86666C15.9992 7.37197 15.8988 6.8825 15.7048 6.42745C15.5107 5.97239 15.2271 5.56107 14.8707 5.218ZM6.90667 2.45333C7.05184 2.30944 7.224 2.19562 7.41326 2.11842C7.60253 2.04122 7.80517 2.00215 8.00957 2.00345C8.21397 2.00475 8.41611 2.0464 8.60437 2.126C8.79264 2.2056 8.96334 2.3216 9.10667 2.46733L12.6947 5.90466L9.17733 9.512C8.85983 9.8152 8.43769 9.98438 7.99867 9.98438C7.55964 9.98438 7.13751 9.8152 6.82 9.512L3.258 5.94866L6.90667 2.45333ZM14 12.3333C14 12.7754 13.8244 13.1993 13.5118 13.5118C13.1993 13.8244 12.7754 14 12.3333 14H3.66667C3.22464 14 2.80072 13.8244 2.48816 13.5118C2.17559 13.1993 2 12.7754 2 12.3333V7.86666C2.00047 7.76073 2.01141 7.65511 2.03267 7.55133L5.40733 10.9267C6.09853 11.6119 7.03286 11.9956 8.00612 11.9939C8.97938 11.9923 9.91243 11.6055 10.6013 10.918L13.9507 7.484C13.9821 7.60916 13.9987 7.73761 14 7.86666V12.3333Z" fill="#55B56C"/>
</svg>
