<svg width="18" height="18" viewBox="0 0 18 18" fill="none" xmlns="http://www.w3.org/2000/svg">
<g clip-path="url(#clip0_4085_1300)">
<path d="M18 9.375V13.875C18 16.149 16.1497 18 13.875 18H4.125C1.85025 18 0 16.149 0 13.875V6.375C0 4.101 1.85025 2.25 4.125 2.25H7.875C8.49675 2.25 9 2.754 9 3.375C9 3.996 8.49675 4.5 7.875 4.5H4.125C3.435 4.5 2.83725 4.87875 2.51175 5.436L7.7805 10.7467C8.42625 11.3925 9.57 11.3963 10.224 10.743L11.895 9.072C12.1493 8.81775 12.507 8.703 12.8625 8.76225C12.873 8.76375 12.8835 8.766 12.894 8.7675C13.7857 8.913 14.1383 10.011 13.4993 10.6493L11.9257 12.2228C11.2725 12.876 10.437 13.3515 9.51975 13.467C8.26725 13.6245 7.059 13.2075 6.18525 12.3337L2.25 8.3595V13.8743C2.25 14.9085 3.0915 15.7493 4.125 15.7493H13.875C14.9085 15.7493 15.75 14.9085 15.75 13.8743V9.37425C15.75 8.75325 16.2533 8.24925 16.875 8.24925C17.4967 8.24925 18 8.75325 18 9.37425V9.375ZM10.5 3.75C10.5 1.67925 12.1792 0 14.25 0C16.3207 0 18 1.67925 18 3.75C18 5.82075 16.3207 7.5 14.25 7.5C12.1792 7.5 10.5 5.82075 10.5 3.75ZM13.5 3.75C13.5 3.94875 13.5787 4.14 13.7197 4.28025L14.6895 5.25C14.9827 5.5425 15.4575 5.5425 15.75 5.25C16.0432 4.95675 16.0432 4.482 15.75 4.1895L15 3.4395V2.25C15 1.836 14.664 1.5 14.25 1.5C13.836 1.5 13.5 1.836 13.5 2.25V3.75Z" fill="#55B56C"/>
</g>
<defs>
<clipPath id="clip0_4085_1300">
<rect width="18" height="18" fill="white"/>
</clipPath>
</defs>
</svg>
