<svg width="18" height="18" viewBox="0 0 18 18" fill="none" xmlns="http://www.w3.org/2000/svg">
<path d="M3 8.25H8.25V3H3V8.25ZM4.5 4.5H6.75V6.75H4.5V4.5ZM15 3H9.75V8.25H15V3ZM13.5 6.75H11.25V4.5H13.5V6.75ZM3 15H8.25V9.75H3V15ZM4.5 11.25H6.75V13.5H4.5V11.25ZM2.25 16.5H5.25V18H2.25C1.0095 18 0 16.9905 0 15.75V12.75H1.5V15.75C1.5 16.1632 1.83675 16.5 2.25 16.5ZM16.5 12.75H18V15.75C18 16.9905 16.9905 18 15.75 18H12.75V16.5H15.75C16.1632 16.5 16.5 16.1632 16.5 15.75V12.75ZM18 2.25V5.25H16.5V2.25C16.5 1.83675 16.1632 1.5 15.75 1.5H12.75V0H15.75C16.9905 0 18 1.0095 18 2.25ZM1.5 5.25H0V2.25C0 1.0095 1.0095 0 2.25 0H5.25V1.5H2.25C1.83675 1.5 1.5 1.83675 1.5 2.25V5.25ZM9.75 12.75H12V15H9.75V12.75ZM12.75 12V9.75H15V12H12.75ZM9.75 9.75H12V12H9.75V9.75Z" fill="white"/>
</svg>
