<svg width="18" height="18" viewBox="0 0 18 18" fill="none" xmlns="http://www.w3.org/2000/svg">
<g clip-path="url(#clip0_4085_1296)">
<path d="M16.7362 5.877L15.75 4.9155V3C15.75 1.3455 14.4045 0 12.75 0H5.25C3.5955 0 2.25 1.3455 2.25 3V4.91925L1.27125 5.87025C0.4635 6.6435 0 7.7295 0 8.8485V13.875C0 16.149 1.851 18 4.125 18H13.875C16.149 18 18 16.149 18 13.875V8.8485C18 7.7295 17.5365 6.64425 16.7362 5.877ZM4.5 3C4.5 2.586 4.836 2.25 5.25 2.25H12.75C13.164 2.25 13.5 2.586 13.5 3V8.2185L10.3358 11.4405C9.6135 12.1628 8.38275 12.159 7.674 11.4517L4.5 8.277V3ZM13.875 15.75H4.125C3.09075 15.75 2.25 14.9093 2.25 13.875V9.2085L6.084 13.0433C6.86325 13.8218 7.899 14.25 9 14.25C10.101 14.25 11.1405 13.8173 11.934 13.0238L15.75 9.138V13.8743C15.75 14.9085 14.9093 15.75 13.875 15.75ZM8.391 9.0135C7.791 9.0135 7.22775 8.7795 6.804 8.35575L5.6085 7.21875C5.1585 6.7905 5.14125 6.078 5.56875 5.628C5.99775 5.17725 6.7095 5.16075 7.1595 5.58825L8.3745 6.74475L10.8112 4.275C11.2448 3.8295 11.9565 3.8205 12.402 4.25475C12.8467 4.68825 12.8558 5.4 12.4222 5.8455L9.987 8.34525C9.55425 8.7795 8.991 9.0135 8.391 9.0135Z" fill="#55B56C"/>
</g>
<defs>
<clipPath id="clip0_4085_1296">
<rect width="18" height="18" fill="white"/>
</clipPath>
</defs>
</svg>
