<svg width="17" height="17" viewBox="0 0 17 17" fill="none" xmlns="http://www.w3.org/2000/svg">
<path d="M0.573214 5.15893C0.72524 5.15893 0.87104 5.09854 0.978538 4.99104C1.08604 4.88354 1.14643 4.73774 1.14643 4.58571V1.71964C1.14643 1.56762 1.20682 1.42182 1.31432 1.31432C1.42182 1.20682 1.56762 1.14643 1.71964 1.14643H4.87232C5.02435 1.14643 5.17015 1.08604 5.27765 0.978538C5.38514 0.87104 5.44554 0.72524 5.44554 0.573214C5.44554 0.421188 5.38514 0.275389 5.27765 0.167891C5.17015 0.060392 5.02435 0 4.87232 0H1.71964C1.26357 0 0.826167 0.181176 0.503672 0.503672C0.181176 0.826167 0 1.26357 0 1.71964V4.58571C0 4.73774 0.060392 4.88354 0.167891 4.99104C0.275389 5.09854 0.421188 5.15893 0.573214 5.15893Z" fill="white"/>
<path d="M14.3304 0H11.1777C11.0257 0 10.8799 0.060392 10.7724 0.167891C10.6649 0.275389 10.6045 0.421188 10.6045 0.573214C10.6045 0.72524 10.6649 0.87104 10.7724 0.978538C10.8799 1.08604 11.0257 1.14643 11.1777 1.14643H14.3304C14.4824 1.14643 14.6282 1.20682 14.7357 1.31432C14.8432 1.42182 14.9036 1.56762 14.9036 1.71964V4.58571C14.9036 4.73774 14.964 4.88354 15.0715 4.99104C15.179 5.09854 15.3248 5.15893 15.4768 5.15893C15.6288 5.15893 15.7746 5.09854 15.8821 4.99104C15.9896 4.88354 16.05 4.73774 16.05 4.58571V1.71964C16.05 1.26357 15.8689 0.826167 15.5464 0.503672C15.2239 0.181176 14.7865 0 14.3304 0Z" fill="white"/>
<path d="M15.4768 10.8911C15.3248 10.8911 15.179 10.9515 15.0715 11.059C14.964 11.1665 14.9036 11.3123 14.9036 11.4643V14.3304C14.9036 14.4824 14.8432 14.6282 14.7357 14.7357C14.6282 14.8432 14.4824 14.9036 14.3304 14.9036H11.1777C11.0257 14.9036 10.8799 14.964 10.7724 15.0715C10.6649 15.179 10.6045 15.3248 10.6045 15.4768C10.6045 15.6289 10.6649 15.7747 10.7724 15.8822C10.8799 15.9897 11.0257 16.05 11.1777 16.05H14.3304C14.7865 16.05 15.2239 15.8689 15.5464 15.5464C15.8689 15.2239 16.05 14.7865 16.05 14.3304V11.4643C16.05 11.3123 15.9896 11.1665 15.8821 11.059C15.7746 10.9515 15.6288 10.8911 15.4768 10.8911Z" fill="white"/>
<path d="M4.87232 14.9036H1.71964C1.56762 14.9036 1.42182 14.8432 1.31432 14.7357C1.20682 14.6282 1.14643 14.4824 1.14643 14.3304V11.4643C1.14643 11.3123 1.08604 11.1665 0.978538 11.059C0.87104 10.9515 0.72524 10.8911 0.573214 10.8911C0.421188 10.8911 0.275389 10.9515 0.167891 11.059C0.060392 11.1665 0 11.3123 0 11.4643V14.3304C0 14.7865 0.181176 15.2239 0.503672 15.5464C0.826167 15.8689 1.26357 16.05 1.71964 16.05H4.87232C5.02435 16.05 5.17015 15.9897 5.27765 15.8822C5.38514 15.7747 5.44554 15.6289 5.44554 15.4768C5.44554 15.3248 5.38514 15.179 5.27765 15.0715C5.17015 14.964 5.02435 14.9036 4.87232 14.9036Z" fill="white"/>
<path d="M15.4768 7.45166H0.573214C0.421188 7.45166 0.275389 7.51205 0.167891 7.61955C0.060392 7.72705 0 7.87285 0 8.02487C0 8.1769 0.060392 8.3227 0.167891 8.4302C0.275389 8.5377 0.421188 8.59809 0.573214 8.59809H15.4768C15.6288 8.59809 15.7746 8.5377 15.8821 8.4302C15.9896 8.3227 16.05 8.1769 16.05 8.02487C16.05 7.87285 15.9896 7.72705 15.8821 7.61955C15.7746 7.51205 15.6288 7.45166 15.4768 7.45166Z" fill="white"/>
</svg>
