<svg width="16" height="16" viewBox="0 0 16 16" fill="none" xmlns="http://www.w3.org/2000/svg">
<g clip-path="url(#clip0_3098_481)">
<path d="M12.6 11.1839C13.6643 9.76152 14.1503 7.98874 13.9602 6.22242C13.77 4.4561 12.9178 2.82739 11.5751 1.66414C10.2324 0.500898 8.49883 -0.110516 6.72343 -0.0470206C4.94804 0.0164746 3.26261 0.750164 2.00642 2.00636C0.750225 3.26255 0.0165356 4.94798 -0.0469595 6.72337C-0.110455 8.49877 0.500959 10.2323 1.66421 11.575C2.82745 12.9177 4.45616 13.77 6.22248 13.9601C7.9888 14.1503 9.76159 13.6643 11.184 12.5999L14.584 15.9999L16 14.5866L12.6 11.1839ZM6.99998 11.9999C6.01107 11.9999 5.04437 11.7067 4.22213 11.1573C3.39988 10.6079 2.75902 9.82696 2.38058 8.91333C2.00214 7.9997 1.90312 6.99437 2.09605 6.02446C2.28898 5.05456 2.76518 4.16364 3.46444 3.46438C4.16371 2.76512 5.05462 2.28892 6.02453 2.09599C6.99443 1.90306 7.99976 2.00208 8.91339 2.38052C9.82703 2.75896 10.6079 3.39982 11.1573 4.22206C11.7067 5.04431 12 6.01101 12 6.99992C11.9987 8.32562 11.4716 9.59667 10.5341 10.5341C9.59673 11.4715 8.32568 11.9987 6.99998 11.9999Z" fill="#6E6E6E"/>
</g>
<defs>
<clipPath id="clip0_3098_481">
<rect width="16" height="16" fill="white"/>
</clipPath>
</defs>
</svg>
