<svg width="18" height="18" viewBox="0 0 18 18" fill="none" xmlns="http://www.w3.org/2000/svg">
<path d="M17.811 8.17737C17.626 7.79547 17.3177 7.48713 16.9358 7.3022L2.70788 0.417375C1.7706 -0.036712 0.642734 0.355021 0.188647 1.29229C-0.0426876 1.76984 -0.0621343 2.32278 0.135132 2.81539L2.60921 8.99936L0.135132 15.184C-0.250229 16.1541 0.223857 17.253 1.19402 17.6383C1.41338 17.7255 1.64715 17.7707 1.8832 17.7718C2.16878 17.7718 2.45069 17.7073 2.70788 17.5832L16.9358 10.6965C17.8731 10.2426 18.265 9.11468 17.811 8.17737ZM2.16039 16.4499C1.84791 16.6012 1.47198 16.4705 1.32072 16.158C1.24363 15.9988 1.23722 15.8145 1.303 15.6503L3.7117 9.62792H16.2588L2.16039 16.4499ZM3.71174 8.37077L1.30304 2.34834C1.20278 2.10828 1.26503 1.83105 1.45828 1.65692C1.64534 1.47464 1.9278 1.43188 2.16039 1.5507L16.2588 8.37077H3.71174Z" fill="white"/>
</svg>
