<svg width="24" height="24" viewBox="0 0 24 24" fill="none" xmlns="http://www.w3.org/2000/svg">
<g clip-path="url(#clip0_1861_8580)">
<path d="M12.0003 14C13.1003 14 14.0003 13.1 14.0003 12C14.0003 10.9 13.1003 9.99999 12.0003 9.99999C10.9003 9.99999 10.0003 10.9 10.0003 12C10.0003 13.1 10.9003 14 12.0003 14ZM9.17031 9.16999C7.61031 10.73 7.61031 13.27 9.17031 14.83L7.05031 16.95C4.32031 14.22 4.32031 9.77999 7.05031 7.04999L9.17031 9.16999ZM19.0003 12C19.0003 13.87 18.2703 15.63 16.9503 16.95L14.8303 14.83C15.5903 14.07 16.0003 13.07 16.0003 12C16.0003 10.93 15.5803 9.92999 14.8303 9.16999L16.9503 7.04999C18.2703 8.36999 19.0003 10.13 19.0003 12ZM5.64031 5.63999C2.13031 9.14999 2.13031 14.86 5.64031 18.37L3.51031 20.49C-1.15969 15.81 -1.15969 8.18999 3.51031 3.50999L5.63031 5.62999L5.64031 5.63999ZM20.4903 20.49L18.3703 18.37C21.8803 14.86 21.8803 9.14999 18.3703 5.63999L20.4903 3.51999C25.1703 8.19999 25.1703 15.81 20.4903 20.49Z" fill="#55B56C"/>
</g>
<defs>
<clipPath id="clip0_1861_8580">
<rect width="24" height="24" fill="white" transform="matrix(1 0 0 -1 0 24)"/>
</clipPath>
</defs>
</svg>
