<svg width="24" height="24" viewBox="0 0 24 24" fill="none" xmlns="http://www.w3.org/2000/svg">
<g clip-path="url(#clip0_1861_8590)">
<path d="M11.9945 9.78748C13.0727 9.78748 13.9539 10.6687 13.9539 11.7469C13.9539 12.825 13.0727 13.7062 11.9945 13.7062C10.9164 13.7062 10.0352 12.825 10.0352 11.7469C10.0352 10.6687 10.9164 9.78748 11.9945 9.78748Z" fill="#ED8C22"/>
<path d="M9.21953 14.5265C7.69141 12.9984 7.69141 10.5046 9.21953 8.97651L7.13828 6.89526C4.46172 9.57183 4.46172 13.9265 7.13828 16.6031L9.21953 14.5218V14.5265Z" fill="#ED8C22"/>
<path d="M18.8617 11.7515C18.8617 9.9187 18.1445 8.18901 16.8508 6.89526L14.7695 8.97651C15.5148 9.72183 15.918 10.7015 15.918 11.7515C15.918 12.8015 15.5055 13.7812 14.7695 14.5265L16.8508 16.6078C18.1445 15.314 18.8617 13.589 18.8617 11.7515Z" fill="#ED8C22"/>
<path d="M5.75586 17.9906C2.31523 14.55 2.31523 8.94844 5.75586 5.50312L3.66523 3.42188C-0.914453 8.01094 -0.914453 15.4875 3.66523 20.0766L5.74648 17.9953L5.75586 17.9859V17.9906Z" fill="#ED8C22"/>
<path d="M20.3254 3.42651L18.2441 5.50776C21.6848 8.94839 21.6848 14.55 18.2441 17.9953L20.3254 20.0765C24.9145 15.4875 24.9145 8.02495 20.3254 3.4312V3.42651Z" fill="#ED8C22"/>
</g>
<defs>
<clipPath id="clip0_1861_8590">
<rect width="24" height="24" fill="white"/>
</clipPath>
</defs>
</svg>
