<svg width="18" height="18" viewBox="0 0 18 18" fill="none" xmlns="http://www.w3.org/2000/svg">
<path d="M15.75 16.1249V17.9999H14.25V16.1249C14.25 15.1312 13.4707 14.3234 12.492 14.2619L10.5 17.2499L9 14.9999L7.5 17.2499L5.508 14.2619C4.52925 14.3234 3.75 15.1312 3.75 16.1249V17.9999H2.25V16.1249C2.25 14.2642 3.76425 12.7499 5.625 12.7499H12.375C14.2357 12.7499 15.75 14.2642 15.75 16.1249ZM9.618 4.57118C10.5592 4.78793 11.3265 5.54918 11.5492 6.48893C11.7 7.12418 11.6175 7.73318 11.3707 8.24993H12.3502C12.726 8.24993 13.0545 7.97393 13.098 7.60043C13.149 7.16018 13.1302 6.69893 13.0297 6.22718C12.6967 4.66793 11.4315 3.41018 9.87 3.08918C7.21725 2.54393 4.87575 4.56668 4.87575 7.12493C4.87575 8.22668 5.31 9.22868 6.01575 9.96893C6.04575 9.33293 6.27525 8.74868 6.64275 8.27693C6.47175 7.92893 6.37575 7.53743 6.37575 7.12418C6.37575 5.47493 7.90425 4.17593 9.61875 4.57043L9.618 4.57118ZM5.15325 3.02093C6.3 1.94618 7.8015 1.41518 9.37575 1.51268C12.3187 1.70318 14.625 4.26443 14.625 7.34318C14.625 8.67068 13.5457 9.74993 12.2182 9.74993H10.4137C10.2307 9.12818 9.66225 8.67068 8.98125 8.67068C8.1525 8.67068 7.48125 9.34193 7.48125 10.1707C7.48125 10.9994 8.1525 11.6707 8.98125 11.6707C9.38475 11.6707 9.75 11.5094 10.0192 11.2499H12.2182C14.3722 11.2499 16.125 9.49718 16.125 7.34318C16.125 3.47543 13.203 0.256432 9.4725 0.0156823C7.4745 -0.114068 5.57925 0.564682 4.128 1.92668C2.78775 3.18293 1.98225 4.92368 1.8855 6.75068H3.38775C3.48 5.32343 4.09875 4.01018 5.154 3.02093H5.15325Z" fill="white"/>
</svg>
