<svg width="13" height="18" viewBox="0 0 13 18" fill="none" xmlns="http://www.w3.org/2000/svg">
<path d="M10.9672 2.05386H10.1479C9.92211 1.67116 9.50923 1.41602 9.03185 1.41602H8.3093C7.8061 -0.472006 5.09665 -0.472006 4.59334 1.41602H3.87079C3.39339 1.41602 2.98051 1.67116 2.75472 2.05386H1.9354C0.870939 2.05386 0 2.91496 0 3.9674V16.0865C0 17.1389 0.870939 18 1.9354 18H10.9672C12.0317 18 12.9026 17.1389 12.9026 16.0865V3.9674C12.9026 2.91496 12.0317 2.05386 10.9672 2.05386ZM3.87079 2.69171H5.16106C5.51589 2.69171 5.80619 2.40469 5.80619 2.05386C5.80619 1.46704 6.14166 1.25657 6.45132 1.25657C6.76098 1.25657 7.09645 1.46704 7.09645 2.05386C7.09645 2.40469 7.38675 2.69171 7.74158 2.69171H9.03185V3.32955H3.87079V2.69171ZM11.6124 16.0865C11.6124 16.4373 11.3221 16.7243 10.9672 16.7243H1.9354C1.58056 16.7243 1.29026 16.4373 1.29026 16.0865V3.9674C1.29026 3.61657 1.58056 3.32955 1.9354 3.32955H2.58053C2.58053 4.03118 3.16115 4.60524 3.87079 4.60524H9.03185C9.74149 4.60524 10.3221 4.03118 10.3221 3.32955H10.9672C11.3221 3.32955 11.6124 3.61657 11.6124 3.9674V16.0865ZM10.3221 9.70801C10.3221 10.0588 10.0318 10.3459 9.67698 10.3459H3.22566C2.87083 10.3459 2.58053 10.0588 2.58053 9.70801C2.58053 9.35718 2.87083 9.07016 3.22566 9.07016H9.67698C10.0318 9.07016 10.3221 9.35718 10.3221 9.70801ZM10.3221 7.15663C10.3221 7.50745 10.0318 7.79447 9.67698 7.79447H3.22566C2.87083 7.79447 2.58053 7.50745 2.58053 7.15663C2.58053 6.8058 2.87083 6.51878 3.22566 6.51878H9.67698C10.0318 6.51878 10.3221 6.8058 10.3221 7.15663ZM10.3221 12.2594C10.3221 12.6102 10.0318 12.8972 9.67698 12.8972H3.22566C2.87083 12.8972 2.58053 12.6102 2.58053 12.2594C2.58053 11.9086 2.87083 11.6215 3.22566 11.6215H9.67698C10.0318 11.6215 10.3221 11.9086 10.3221 12.2594Z" fill="white"/>
</svg>
