<svg width="16" height="16" viewBox="0 0 16 16" fill="none" xmlns="http://www.w3.org/2000/svg">
<path d="M8.00399 8.20599C10.4113 8.19199 11.7073 6.89199 11.752 4.42533C11.7107 2.05199 10.3447 0.682661 7.99599 0.667328C5.62199 0.681995 4.24799 2.11399 4.24799 4.42533C4.24799 6.80599 5.62265 8.19266 8.00399 8.20666V8.20599ZM7.99599 1.99999C9.62065 2.01066 10.39 2.78866 10.4187 4.42399C10.3873 6.12999 9.66332 6.86199 8.00399 6.87199C6.34065 6.86199 5.61599 6.13333 5.58132 4.43599C5.61465 2.76199 6.36199 2.00999 7.99599 1.99999Z" fill="#6E6E6E"/>
<path d="M7.99601 9.10733C4.44401 9.13 2.53268 11.048 2.46868 14.6553C2.46201 15.0233 2.75534 15.3273 3.12334 15.334C3.46734 15.3213 3.79468 15.0473 3.80201 14.6793C3.85268 11.8053 5.18868 10.4587 7.99601 10.4413C10.7747 10.4593 12.1493 11.8453 12.1987 14.6787C12.2053 15.0427 12.5027 15.334 12.8653 15.334H12.8773C13.2453 15.3273 13.5387 15.024 13.5327 14.656C13.4713 11.1007 11.5087 9.13066 7.99668 9.108L7.99601 9.10733Z" fill="#6E6E6E"/>
</svg>
