<svg width="18" height="18" viewBox="0 0 18 18" fill="none" xmlns="http://www.w3.org/2000/svg">
<path d="M15 11.9998C15 12.6208 14.496 13.1248 13.875 13.1248C13.254 13.1248 12.75 12.6208 12.75 11.9998C12.75 11.3788 13.254 10.8748 13.875 10.8748C14.496 10.8748 15 11.3788 15 11.9998ZM17.25 5.99976C16.8353 5.99976 16.5 6.33576 16.5 6.74976V15.7498C16.5 16.163 16.164 16.4998 15.75 16.4998H3.75C2.5095 16.4998 1.5 15.4903 1.5 14.2498V6.74976V6.74601C2.1405 7.22601 2.92725 7.49976 3.74925 7.49976H11.2492C11.664 7.49976 11.9992 7.16376 11.9992 6.74976C11.9992 6.33576 11.664 5.99976 11.2492 5.99976H3.75C3.108 5.99976 2.51025 5.71401 2.08725 5.24676C2.499 4.79151 3.0885 4.49976 3.75 4.49976H9C9.41475 4.49976 9.75 4.16376 9.75 3.74976C9.75 3.33576 9.41475 2.99976 9 2.99976H3.75C1.5 2.99976 0 4.87476 0 6.74976V14.2498C0 16.3175 1.68225 17.9998 3.75 17.9998H15.75C16.9905 17.9998 18 16.9903 18 15.7498V6.74976C18 6.33576 17.6647 5.99976 17.25 5.99976ZM12.5272 3.15801L13.5 2.19726V6.74976C13.5 7.16376 13.8352 7.49976 14.25 7.49976C14.6648 7.49976 15 7.16376 15 6.74976V2.21076L15.9772 3.16176C16.1227 3.30351 16.311 3.37476 16.5 3.37476C16.6957 3.37476 16.8907 3.29901 17.0378 3.14826C17.3265 2.85126 17.3205 2.37651 17.0228 2.08776L15.3525 0.461758C14.7367 -0.152492 13.7385 -0.151742 13.125 0.458758L11.472 2.09151C11.1772 2.38251 11.175 2.85726 11.4653 3.15201C11.7577 3.44751 12.231 3.44901 12.5265 3.15876L12.5272 3.15801Z" fill="white"/>
</svg>
