<svg xmlns="http://www.w3.org/2000/svg" version="1.1" xmlns:xlink="http://www.w3.org/1999/xlink" width="512" height="512" x="0" y="0" viewBox="0 0 24 24" style="enable-background:new 0 0 512 512" xml:space="preserve" class=""><g><path d="M17.5 14a1.5 1.5 0 1 1-.001 3.001A1.5 1.5 0 0 1 17.5 14Zm5-6.048a1.5 1.5 0 0 0-1.5 1.5v11.047c0 .275-.225.5-.5.5h-15a2.502 2.502 0 0 1-2.5-2.5V9.395A5.495 5.495 0 0 0 5.5 10h6a1.5 1.5 0 1 0 0-3h-6a2.485 2.485 0 0 1-1.992-.995A2.49 2.49 0 0 1 5.5 5h4a1.5 1.5 0 1 0 0-3h-4C2.441 1.989-.012 4.537 0 7.5v11C0 21.532 2.468 24 5.5 24h15c1.93 0 3.5-1.57 3.5-3.5V9.453a1.5 1.5 0 0 0-1.5-1.5Zm-5.685.717a.968.968 0 0 0 1.369 0l3.063-3.063c.61-.61.178-1.653-.685-1.653h-1.563v-2.5a1.5 1.5 0 1 0-3 0v2.501h-1.563c-.863 0-1.295 1.043-.685 1.653l3.063 3.063Z" fill="#55b56c" opacity="1" data-original="#000000" class=""></path></g></svg>